Coordinates
version=1
nRows=9
nColumns=40
inDegrees=yes

Units are S.I. units (second, meters, Newtons, ...)
If the header above contains a line with 'inDegrees', this indicates whether rotational values are in degrees (yes) or radians (no).

endheader
time	pelvis_tilt	pelvis_list	pelvis_rotation	pelvis_tx	pelvis_ty	pelvis_tz	hip_flexion_r	hip_adduction_r	hip_rotation_r	knee_angle_r	knee_angle_r_beta	ankle_angle_r	subtalar_angle_r	mtp_angle_r	hip_flexion_l	hip_adduction_l	hip_rotation_l	knee_angle_l	knee_angle_l_beta	ankle_angle_l	subtalar_angle_l	mtp_angle_l	lumbar_extension	lumbar_bending	lumbar_rotation	arm_flex_r	arm_add_r	arm_rot_r	elbow_flex_r	pro_sup_r	wrist_flex_r	wrist_dev_r	arm_flex_l	arm_add_l	arm_rot_l	elbow_flex_l	pro_sup_l	wrist_flex_l	wrist_dev_l
      9.00000000000000000000	      9.49247314041883605285	      7.04477554779118708694	   -177.17238123297161678238	      0.34808075745611749552	      0.76530428175466380658	     -0.91451686156709988129	     57.48862520268664155765	    -44.86627332527410061402	    -27.64240806376195536131	     67.24734107711280728381	      1.17368751500724854964	     -1.70205376588860524123	      0.00000000000000000000	      0.00000000000000000000	     73.72898889732664429175	    -41.25502878945307827507	      2.75370688908762284441	     69.98026681803129633863	      1.22138606739878174956	      3.29930221925505318126	      0.00000000000000000000	      0.00000000000000000000	    -68.17445868611657999736	      8.47032054715942628320	      8.97878629876023026668	     57.40318290708723480975	    -12.86914898360864079052	     11.47742335464105600806	     20.11689018737679646165	     86.28222994755036268089	      0.00000000000000000000	      0.00000000000000000000	     55.50251358749068941734	     -0.54441475386062965214	      9.50281018351468276251	     20.76521569944541312225	     86.56814303763124485158	      0.00000000000000000000	      0.00000000000000000000
      9.00500000000000078160	      9.35304874541711050995	      7.16743896762874399542	   -177.01460799662507383800	      0.34771216521470871275	      0.76616063644248555420	     -0.91414771076389944593	     56.90531046378885093873	    -44.96702060597338146408	    -28.25372733977633998848	     67.11876084854772273047	      1.17144336666582082884	     -1.77505088491688112207	      0.00000000000000000000	      0.00000000000000000000	     73.60705279428326264224	    -41.14782204118166220042	      2.91334844436795181721	     69.87705746337701384618	      1.21958472434120590577	      3.33374726595037129684	      0.00000000000000000000	      0.00000000000000000000	    -68.41368034614377791058	      8.67301983969362844107	      9.09147721616760406960	     57.30019664670297885323	    -13.08161078344909711291	     11.88770230216666945466	     20.54903214056080074101	     86.15987354660704511389	      0.00000000000000000000	      0.00000000000000000000	     55.50933745664510610140	     -0.54528455586053736770	      9.68390078942456788980	     20.86459972404036378180	     86.65079019678081806433	      0.00000000000000000000	      0.00000000000000000000
      9.00999999999999978684	      9.44730735360590223593	      6.97932213520199162815	   -177.22717039841623432039	      0.34762191644127460322	      0.76656082080889387242	     -0.91454176777887086214	     57.23201586167803611715	    -44.83761604708684700427	    -27.84163203117534735043	     67.01770270860865252871	      1.16967956938794293009	     -1.71442474391775956377	      0.00000000000000000000	      0.00000000000000000000	     73.32796787409613159525	    -41.22353776309662265476	      2.57863439080296830141	     69.76293573900203170979	      1.21759292450280898201	      3.40148235422811184847	      0.00000000000000000000	      0.00000000000000000000	    -68.38449409989030414181	      8.38787356202318079568	      9.02612906848625584644	     57.28806889928412005020	    -12.98254629983326857712	     11.26047984349732544729	     20.57452013324527584359	     86.12209547186581914957	      0.00000000000000000000	      0.00000000000000000000	     55.53081861827786980257	     -0.45249603456429360326	      9.29125161103235441828	     20.88552126149753718209	     86.62975149334101843124	      0.00000000000000000000	      0.00000000000000000000
      9.01500000000000056843	      9.66889777687375406856	      6.97333800783995538808	   -177.21555084924412426517	      0.34776250423396926070	      0.76637553491705212583	     -0.91435815336925596597	     57.43731948403726761399	    -44.84450906543366244250	    -27.82491108064785478859	     66.93683847264270525557	      1.16826822222322745937	     -1.75432134965825348161	      0.00000000000000000000	      0.00000000000000000000	     73.55626234391431239601	    -41.10209517037011295315	      2.65194959928931117688	     69.75286340529842732394	      1.21741712911632138372	      3.33651793466106871833	      0.00000000000000000000	      0.00000000000000000000	    -68.18828273992811261905	      8.44985953907027287357	      8.98997449348917498924	     57.31358664459217777676	    -12.92327361222267434471	     11.01280764649911425579	     20.49249557977163505029	     86.31604718202105175351	      0.00000000000000000000	      0.00000000000000000000	     55.56703063416371435324	     -0.34104753866332992995	      8.98860915775384228255	     20.73588388134874094249	     86.58629910607102431186	      0.00000000000000000000	      0.00000000000000000000
      9.01999999999999957367	      9.47638972356604902814	      6.89172958529339929612	   -177.36305161460126100792	      0.34734021149611521428	      0.76749376460686558055	     -0.91464161901147389422	     57.22510742253076188035	    -44.76188755056958967771	    -27.84931266333908439492	     66.85679948045613230079	      1.16687127827959380433	     -1.76456476168620679523	      0.00000000000000000000	      0.00000000000000000000	     73.02647704614052770467	    -41.25518929036389437215	      2.37533453981042219638	     69.59681268229658712698	      1.21469353019982184705	      3.44439125151576197581	      0.00000000000000000000	      0.00000000000000000000	    -68.48298050029255534810	      8.25336148926220047883	      9.02814510774420320161	     57.32363346393951530899	    -12.92827753273014401714	     10.86947711823139961496	     20.60138822790649726358	     86.16650114952319938766	      0.00000000000000000000	      0.00000000000000000000	     55.66210180242947558327	     -0.33589814128110595526	      9.15369837969003619094	     20.71612644439298378529	     86.52134942867223799112	      0.00000000000000000000	      0.00000000000000000000
      9.02500000000000035527	      9.70369101197151628924	      6.93828880141585901953	   -177.29797687898019376007	      0.34754628144533222800	      0.76716000034259212992	     -0.91438444491663128932	     57.40774598607542600348	    -44.82248865791136438474	    -27.94346234531110795274	     66.84516069032798668559	      1.16666814307090915825	     -1.85611758505831359045	      0.00000000000000000000	      0.00000000000000000000	     73.36567524690546804322	    -41.07579960449954370461	      2.60097684498438752598	     69.60183268402724365842	      1.21478114575847739864	      3.37324972391844424280	      0.00000000000000000000	      0.00000000000000000000	    -68.25774407106844421378	      8.38811293431414384258	      9.02598373109530882630	     57.37317786563350807683	    -12.85562456817184262547	     10.54476960790031903059	     20.46489110724762383597	     86.33107594910380555575	      0.00000000000000000000	      0.00000000000000000000	     55.66377597673889709995	     -0.25522147977151216081	      8.89090468497306041229	     20.65886653695800845298	     86.56178039791481637621	      0.00000000000000000000	      0.00000000000000000000
      9.02999999999999936051	      9.61585972269111088906	      6.82647410476605109864	   -177.37029968372041821567	      0.34736370805085609037	      0.76779170046120159832	     -0.91439367992714504219	     57.35740773458870478407	    -44.81615532158350134750	    -27.84281334809354291338	     66.77082541889029698723	      1.16537074783395766531	     -1.86434878118569047345	      0.00000000000000000000	      0.00000000000000000000	     73.02259017482475655925	    -41.11273459632818827458	      2.33771646812945643745	     69.51760835685702488718	      1.21331115393908017808	      3.44535195179828290790	      0.00000000000000000000	      0.00000000000000000000	    -68.40214297678474508757	      8.27193734612870024137	      8.97335242851610637160	     57.34842469907304973731	    -12.92792437744384947962	     10.83718671631088170670	     20.63523255118408883391	     86.12209114182257962966	      0.00000000000000000000	      0.00000000000000000000	     55.77957778952563216990	     -0.26863226688837393841	      9.09947958915077670383	     20.55237772485604352823	     86.52051060537871762790	      0.00000000000000000000	      0.00000000000000000000
      9.03500000000000014211	      9.60255774463110967076	      6.80568467795632159323	   -177.35135910829922067933	      0.34730646519600366640	      0.76812707228756471611	     -0.91427200186957435779	     57.30795844550638662440	    -44.86631392997905720676	    -27.89985671984014103941	     66.73678282223647784122	      1.16477659243642017728	     -1.96736792855708242378	      0.00000000000000000000	      0.00000000000000000000	     72.93593462344303191003	    -41.05102068852073671223	      2.33176965673762204290	     69.47128412398049590593	      1.21250264355192416410	      3.41819901316805152547	      0.00000000000000000000	      0.00000000000000000000	    -68.44468399183836027078	      8.29705141675089663522	      8.91896858396752811871	     57.43850327415592005309	    -12.87372931343935889004	     10.93526618481118362070	     20.52996706597263809613	     86.02756279154364449369	      0.00000000000000000000	      0.00000000000000000000	     55.84443667172837422186	     -0.32281184907952409358	      9.31076868524035639041	     20.48436968803815361184	     86.49820327246386852948	      0.00000000000000000000	      0.00000000000000000000
      9.03999999999999914735	      9.60607931448998897395	      6.84373770132904368779	   -177.40093443995272082248	      0.34728008366251394978	      0.76833704742836994583	     -0.91437479853800140983	     57.30123855227432017045	    -44.80647472854271029519	    -27.93579506175470328344	     66.73411675118251196182	      1.16473006071843632192	     -2.11433533338201495866	      0.00000000000000000000	      0.00000000000000000000	     72.94100656644143043650	    -41.13748648119786821553	      2.31440722324574288393	     69.44287098639935607025	      1.21200674075031122889	      3.37347842807324616032	      0.00000000000000000000	      0.00000000000000000000	    -68.46678646134940038337	      8.27306957895813788184	      8.98637564771658858831	     57.48281838801859322530	    -12.87792894692568701487	     10.91870821357841947474	     20.43035194173149804442	     86.12810410769426994193	      0.00000000000000000000	      0.00000000000000000000	     55.83877547731769652728	     -0.36385894006279134727	      9.49097286791992189592	     20.55831658768325809206	     86.58907510171066235216	      0.00000000000000000000	      0.00000000000000000000
